<?xml version="1.0" encoding="UTF-8"?>
<svg id="Layer_1" data-name="Layer 1" xmlns="http://www.w3.org/2000/svg" viewBox="0 0 2320.43 1111.11">
  <defs>
    <style>
      .cls-1 {
        font-family: Impact, Impact;
        font-size: 657.98px;
      }

      .cls-1, .cls-2 {
        fill: #00aeef;
      }
    </style>
  </defs>
  <g>
    <polygon class="cls-2" points="951.97 278.74 951.97 832.37 800.62 920.48 778.26 933.51 631.99 839.88 800.62 741.71 800.62 369.41 473.21 178.78 310.94 273.25 151.35 366.17 151.35 923.72 0 835.61 0 275.5 151.35 187.39 312.47 93.58 319.67 89.39 473.21 0 626.74 89.39 800.62 190.63 951.97 278.74"/>
    <polygon class="cls-2" points="626.74 1021.72 473.21 1111.11 319.67 1021.72 304.64 1012.97 306.16 835.07 473.21 932.33 626.74 1021.72"/>
    <g>
      <path class="cls-2" d="M482.03,515.23c-3.47-2.25-6.51-5.53-6.84-9.87-.49-6.41,4.28-11.09,6.69-16.56.51-.38,5.67,9.07,6.03,9.91,3.03,7.25.74,12.74-5.88,16.51Z"/>
      <path class="cls-2" d="M556.11,499.13c-1.01.03-4.83-3.78-5.57-4.75-6.8-8.91.88-17.67,5.12-25.6.5-.35,1.1.9,1.33,1.24,4.42,6.43,9.95,15.84,5.16,23.32-.7,1.09-5.01,5.75-6.04,5.79Z"/>
      <path class="cls-2" d="M562.15,643.96c1.53.21,3.82,1.89,3.82,3.46v20.49h-19.13c.08-6.22-.84-13.08-.31-19.29.22-2.55,1.43-4.39,4.11-4.7,2.42-.28,9.13-.3,11.51.03Z"/>
      <path class="cls-2" d="M627.76,513.39c-5.14-4.21-5.92-9.11-3.34-15.16.45-1.06,4.93-9.29,5.46-9.42.42-.1.52.25.71.5,5.19,6.99,10.09,16.52,2.33,23.49-2.42,2.17-2.55,2.72-5.16.59Z"/>
      <polygon class="cls-2" points="635.85 463.26 635.85 647.85 475.98 740.15 316.12 647.85 316.12 463.26 475.98 370.96 635.85 463.26"/>
    </g>
  </g>
  <text class="cls-1" transform="translate(990.98 818.89)"><tspan x="0" y="0">EALM</tspan></text>
</svg>